<?xml version="1.0" encoding="iso-8859-1"?>
<!-- Uploaded to: SVG Repo, www.svgrepo.com, Generator: SVG Repo Mixer Tools -->
<svg height="800px" width="800px" version="1.1" id="Layer_1" xmlns="http://www.w3.org/2000/svg" xmlns:xlink="http://www.w3.org/1999/xlink" 
	 viewBox="0 0 512 512" xml:space="preserve">
<path style="fill:#6FB0B6;" d="M256,307.2c-28.237,0-51.2-22.963-51.2-51.2s22.963-51.2,51.2-51.2c28.237,0,51.2,22.963,51.2,51.2
	S284.237,307.2,256,307.2z"/>
<g>
	<path style="fill:#573A32;" d="M256,192c-35.285,0-64,28.715-64,64c0,35.285,28.715,64,64,64s64-28.715,64-64S291.285,192,256,192z
		 M256,294.4c-21.171,0-38.4-17.229-38.4-38.4c0-21.171,17.229-38.4,38.4-38.4c21.171,0,38.4,17.229,38.4,38.4
		C294.4,277.171,277.171,294.4,256,294.4z"/>
	<path style="fill:#573A32;" d="M453.999,252.314c34.33-47.181,42.743-91.332,23.706-124.314
		c-11.324-19.61-36.941-42.991-94.703-42.991c-9.37,0-19.268,0.862-29.38,2.091C330.513,33.203,295.996,0,256,0
		c-39.987,0-74.513,33.203-97.621,87.1c-10.103-1.237-20.002-2.091-29.363-2.091l0,0C71.236,85.018,45.619,108.39,34.295,128
		c-19.038,32.981-10.624,77.124,23.706,124.314c0.896,1.229,1.946,2.441,2.867,3.669C25.788,302.916,14.31,349.38,34.295,384
		c11.324,19.61,36.941,42.991,94.703,42.991c9.37,0,19.268-0.862,29.38-2.091C181.487,478.797,216.004,512,256,512
		s74.513-33.203,97.621-87.108c10.112,1.237,20.011,2.091,29.38,2.091c57.754,0,83.379-23.373,94.703-42.991
		c19.985-34.62,8.516-81.084-26.573-128.026C452.053,254.754,453.103,253.534,453.999,252.314z M383.002,110.609
		c34.551,0,60.783,9.847,72.533,30.191c13.918,24.098,4.813,58.453-21.06,94.703c-15.411-17.254-34.022-34.304-55.211-50.662
		c-3.575-26.547-9.037-51.191-16.282-73.173C369.903,110.993,376.61,110.609,383.002,110.609z M382.771,220.868
		c13.303,11.563,25.088,23.356,35.354,35.132c-10.266,11.767-22.05,23.561-35.354,35.132C383.497,279.654,384,267.998,384,256
		C384,244.002,383.497,232.346,382.771,220.868z M349.807,163.772c-9.574-6.366-19.413-12.621-29.807-18.628
		c-10.249-5.914-20.582-11.298-30.925-16.41c16.623-5.717,32.717-10.112,48-13.107C342.127,130.398,346.445,146.483,349.807,163.772
		z M256,25.6c27.895,0,53.154,25.165,71.62,65.869c-22.997,4.83-47.113,12.365-71.62,22.383
		c-24.508-10.018-48.623-17.553-71.62-22.391C202.846,50.765,228.105,25.6,256,25.6z M174.925,115.627
		c15.283,2.995,31.377,7.39,48,13.107c-10.351,5.111-20.685,10.496-30.933,16.41c-10.394,5.999-20.233,12.262-29.807,18.628
		C165.555,146.483,169.865,130.398,174.925,115.627z M128.998,401.391c-34.551,0-60.783-9.847-72.533-30.191
		c-13.943-24.149-4.787-58.59,21.205-94.908c15.727,17.553,34.193,34.731,55.074,50.901c3.575,26.53,9.037,51.174,16.273,73.148
		C142.097,401.007,135.39,401.391,128.998,401.391z M129.229,291.132c-13.303-11.563-25.088-23.356-35.354-35.132
		c10.266-11.767,22.05-23.561,35.354-35.132C128.503,232.346,128,244.002,128,256C128,267.998,128.503,279.654,129.229,291.132z
		 M132.745,184.841c-21.197,16.358-39.799,33.417-55.211,50.662c-25.873-36.25-34.978-70.605-21.069-94.703
		c11.742-20.335,37.982-30.182,72.533-30.191c6.391,0,13.099,0.375,20.019,1.05C141.781,133.641,136.32,158.293,132.745,184.841z
		 M162.185,348.177c9.651,6.443,19.533,12.732,29.815,18.671c10.249,5.914,20.582,11.298,30.925,16.41
		c-16.623,5.717-32.717,10.112-48,13.107C169.865,381.594,165.547,365.483,162.185,348.177z M256,486.4
		c-27.895,0-53.154-25.165-71.62-65.869c22.997-4.83,47.113-12.365,71.62-22.383c24.508,10.018,48.623,17.553,71.62,22.383
		C309.154,461.235,283.896,486.4,256,486.4z M337.075,396.365c-15.292-2.995-31.377-7.39-48-13.107
		c10.351-5.111,20.676-10.496,30.925-16.41c10.291-5.939,20.164-12.237,29.815-18.671
		C346.453,365.491,342.135,381.594,337.075,396.365z M355.089,313.207c-14.822,10.965-30.754,21.581-47.889,31.471
		c-17.135,9.89-34.295,18.441-51.2,25.796c-16.905-7.356-34.065-15.898-51.2-25.796c-17.135-9.89-33.067-20.506-47.889-31.471
		c-2.082-18.321-3.311-37.419-3.311-57.207c0-19.789,1.229-38.886,3.311-57.207c14.822-10.965,30.754-21.581,47.889-31.471
		s34.295-18.441,51.2-25.796c16.905,7.356,34.065,15.898,51.2,25.796c17.135,9.89,33.067,20.506,47.889,31.471
		c2.082,18.321,3.311,37.419,3.311,57.207C358.4,275.789,357.171,294.886,355.089,313.207z M455.535,371.2
		c-11.742,20.335-37.982,30.191-72.533,30.191c-6.391,0-13.099-0.375-20.019-1.05c7.236-21.973,12.698-46.609,16.273-73.148
		c20.881-16.171,39.347-33.348,55.074-50.901C460.322,312.619,469.47,347.051,455.535,371.2z"/>
</g>
</svg>